<svg width="741" height="156" viewBox="0 0 741 156" fill="none" xmlns="http://www.w3.org/2000/svg">
<path d="M-180.461 18.8757C-186.886 18.7933 -192.823 18.6823 -198.689 19.4843C-205.452 15.3229 -192.553 8.52603 -191.058 4.61696C-188.354 -2.45635 -150.411 0.704518 -136.515 0.704518C-59.9345 0.704518 31.8935 -1.82647 94.6564 14.0068C137.819 24.8956 165.307 40.4208 209.395 50.9577C250.814 60.8569 306.758 67.1519 357.48 70.9546C381.453 72.752 405.406 75.8754 429.545 77.2145C447.199 78.1939 461.543 78.2566 477.87 81.127C492.953 83.7784 506.605 84.7678 510.935 90.5169C515.06 95.994 510.921 101.807 516.729 107.166C525.308 115.085 544.99 119.085 564.63 124.12C584.098 129.111 598.222 135.502 616.63 140.77C631.331 144.977 645.548 147.704 663.825 150.203C680.116 152.431 700.475 154.84 711.868 159.289C736.983 169.096 757.614 182.584 720.064 191.501C686.977 199.359 633.898 196.327 594.869 196.327C578.15 196.327 558.979 190.964 544.848 188.676C516.926 184.155 498.727 179.513 483.946 170.809C471.99 163.767 456.876 160.547 438.871 155.377C387.287 140.565 309.473 138.61 243.449 133.771C200.869 130.65 155.88 128.165 115.428 122.816C98.1641 120.534 87.3711 117.852 80.1022 112.513C60.0417 97.7814 65.8612 80.9184 56.5046 65.4337C43.5985 44.075 -17.5751 31.466 -80.842 24.9182C-112.875 21.6029 -146.614 19.3095 -180.461 18.8757Z" fill="#5B15D7"/>
<path d="M-256.164 48.4597C-262.59 48.3458 -268.527 48.1922 -274.392 49.3018C-281.156 43.5444 -268.257 34.1408 -266.762 28.7325C-264.057 18.9464 -226.114 23.3196 -212.219 23.3196C-135.638 23.3196 -43.8103 19.8179 18.9527 41.7236C62.1157 56.7885 89.603 78.2679 133.691 92.846C175.11 106.542 231.055 115.251 281.776 120.512C305.75 122.999 329.702 127.32 353.841 129.173C371.495 130.528 385.839 130.615 402.167 134.586C417.249 138.254 430.902 139.623 435.232 147.577C439.357 155.155 435.218 163.197 441.025 170.612C449.605 181.568 469.286 187.102 488.927 194.068C508.394 200.973 522.519 209.815 540.926 217.103C555.627 222.924 569.844 226.697 588.121 230.155C604.412 233.236 624.772 236.57 636.165 242.725C661.279 256.292 681.91 274.954 644.36 287.291C611.273 298.163 558.195 293.967 519.166 293.967C502.446 293.967 483.276 286.548 469.144 283.382C441.222 277.127 423.023 270.706 408.243 258.663C396.286 248.921 381.173 244.465 363.167 237.312C311.583 216.82 233.769 214.115 167.745 207.42C125.165 203.102 80.1766 199.663 39.7242 192.264C22.4604 189.106 11.6674 185.395 4.39847 178.01C-15.662 157.628 -9.8425 134.297 -19.1991 112.874C-32.1052 83.3236 -93.2788 65.8788 -156.546 56.8197C-188.579 52.233 -222.317 49.06 -256.164 48.4597Z" fill="#53A0BE"/>
</svg>
