<svg width="216" height="40" viewBox="0 0 216 40" fill="none" xmlns="http://www.w3.org/2000/svg">
<g clip-path="url(#clip0_28_3)">
<path d="M33.276 13.3047C27.2165 6.5114 19.8014 3.20801 16.7139 5.92898C13.6278 8.64944 16.0361 16.3648 22.0939 23.1595C28.1529 29.9538 35.5675 33.2567 38.6552 30.5352C41.7422 27.8144 39.3346 20.1 33.276 13.3047ZM33.8241 17.0595C34.0115 16.8919 34.4226 17.0457 34.7436 17.4036C35.0649 17.7612 35.1725 18.1867 34.9866 18.3546C34.799 18.5231 34.3872 18.3683 34.0667 18.0113C33.7451 17.6532 33.6371 17.2279 33.8241 17.0595ZM27.6244 11.9058C27.7249 11.9516 27.8187 12.3546 27.8356 12.8047C27.8524 13.2549 27.7841 13.5822 27.6853 13.5378C27.5856 13.4904 27.4903 13.089 27.4733 12.6377C27.4569 12.188 27.5249 11.8592 27.6244 11.9058ZM21.1262 19.067C20.9389 19.2349 20.5274 19.0815 20.2073 18.7241C19.8857 18.3671 19.7766 17.9403 19.964 17.7728C20.151 17.6046 20.5633 17.7581 20.8842 18.1159C21.2052 18.4738 21.3128 18.8988 21.1262 19.067ZM23.1089 16.9001C22.6349 16.7035 22.2429 16.4652 22.2355 16.3692C22.2263 16.2725 22.6042 16.3523 23.0775 16.5495C23.5517 16.7453 23.9438 16.9834 23.953 17.08C23.96 17.1753 23.5829 17.0955 23.1089 16.9001ZM23.9806 13.9702C23.5535 14.3536 22.5106 13.8861 21.6502 12.9276C20.789 11.9689 20.4375 10.8805 20.8632 10.4978C21.2903 10.1149 22.3346 10.5805 23.1951 11.5402C24.0567 12.4991 24.4085 13.5885 23.9806 13.9702ZM25.2901 9.6388C25.1038 9.80624 24.6916 9.65281 24.3706 9.29581C24.0501 8.93839 23.9412 8.51231 24.1286 8.3453C24.3152 8.17735 24.7267 8.33079 25.0472 8.68821C25.3686 9.04555 25.4766 9.47102 25.2901 9.6388ZM27.9652 21.9252C27.6487 22.2085 26.955 21.9474 26.4135 21.3456C25.8719 20.742 25.6888 20.0229 26.0041 19.7402C26.3206 19.4571 27.0147 19.7159 27.5563 20.3202C28.0979 20.9232 28.2809 21.6409 27.9652 21.9252ZM30.6109 26.4852C30.4226 26.6543 30.0119 26.5001 29.6907 26.1423C29.3702 25.7852 29.2614 25.3601 29.4487 25.1919C29.635 25.0236 30.0475 25.1779 30.3681 25.5348C30.6885 25.8927 30.7962 26.3187 30.6109 26.4852ZM30.211 17.937C29.6695 17.3326 29.5232 16.5811 29.8864 16.2561C30.2484 15.9319 30.9806 16.1561 31.5221 16.7605C32.0631 17.3634 32.209 18.1159 31.8478 18.4408C31.4851 18.7656 30.7527 18.5395 30.211 17.937ZM32.548 24.7653C32.1029 24.3877 31.7729 24.0251 31.8089 23.9565C31.8434 23.8873 32.2341 24.137 32.6767 24.5143C33.1209 24.8918 33.4526 25.2553 33.4171 25.3236C33.3816 25.3918 32.9905 25.1424 32.548 24.7653ZM35.9674 25.0591C35.7716 25.2349 35.052 24.7484 34.3575 23.976C33.6633 23.2023 33.2584 22.4338 33.454 22.2581C33.6475 22.0838 34.3683 22.5683 35.0632 23.3425C35.7581 24.1155 36.1616 24.8845 35.9674 25.0591ZM20.8188 24.6162C20.1296 23.8425 19.4847 23.0538 18.8791 22.2562C18.6527 22.3436 18.3957 22.3875 18.125 22.3674C17.3156 22.3055 16.6998 21.7325 16.749 21.084C16.7787 20.698 17.0398 20.3771 17.415 20.1904C16.2819 18.4633 15.3544 16.7236 14.6714 15.0371C6.76622 15.1654 0.426455 18.7743 0.0203625 23.7173C-0.427483 29.1918 6.56625 34.2164 15.6415 34.9373C21.2338 35.383 26.3054 34.086 29.4844 31.7453C26.555 30.1174 23.549 27.678 20.8188 24.6162ZM8.05529 18.4852C8.5343 18.5226 8.90265 18.8207 8.87618 19.1564C8.85244 19.4895 8.44285 19.732 7.96435 19.6963C7.48534 19.6607 7.11707 19.3598 7.14226 19.0253C7.16745 18.6925 7.57687 18.4493 8.05529 18.4852ZM8.40314 25.689C7.11801 25.5918 6.12191 24.8937 6.17954 24.1312C6.23752 23.3682 7.32592 22.8258 8.61063 22.9238C9.89576 23.0203 10.8913 23.7172 10.8334 24.4806C10.7757 25.2442 9.68708 25.7843 8.40314 25.689ZM11.2484 32.5224C10.769 32.4882 10.4012 32.1872 10.4258 31.8536C10.4514 31.5173 10.8604 31.2754 11.3393 31.3125C11.8177 31.3471 12.1857 31.647 12.1602 31.9818C12.1354 32.3171 11.7268 32.5583 11.2484 32.5224ZM12.1656 28.0695C11.6813 28.3288 11.2302 28.4737 11.1599 28.39C11.0882 28.3064 11.422 28.026 11.9054 27.7682C12.3884 27.5055 12.8398 27.3616 12.912 27.4449C12.9823 27.5281 12.6482 27.8064 12.1656 28.0695ZM13.2827 20.5868C13.1775 20.6373 12.8352 20.3458 12.518 19.9378C12.2019 19.5274 12.0312 19.1518 12.1358 19.1029C12.2422 19.0517 12.5832 19.3449 12.8995 19.7535C13.2156 20.1635 13.3872 20.5364 13.2827 20.5868ZM17.6156 29.1604C16.8071 29.0997 16.1853 28.5933 16.229 28.0289C16.2711 27.4653 16.9596 27.057 17.7681 27.1173C18.5772 27.1781 19.1978 27.6841 19.1551 28.2499C19.1129 28.8128 18.4231 29.2203 17.6156 29.1604ZM24.1936 30.0701C24.1686 30.4052 23.76 30.6468 23.2811 30.6117C22.8023 30.5772 22.4344 30.2771 22.4599 29.941C22.4845 29.6058 22.8933 29.3649 23.3728 29.3997C23.8511 29.4371 24.2184 29.738 24.1936 30.0701Z" fill="#472E27"/>
</g>
<path d="M57.6001 12.0909H52.7933C52.7592 11.6932 52.6683 11.3324 52.5206 11.0085C52.3786 10.6847 52.1797 10.4062 51.924 10.1733C51.674 9.93466 51.37 9.75284 51.0121 9.62784C50.6541 9.49716 50.2479 9.43182 49.7933 9.43182C48.9979 9.43182 48.3246 9.625 47.7734 10.0114C47.228 10.3977 46.8132 10.9517 46.5291 11.6733C46.2507 12.3949 46.1115 13.2614 46.1115 14.2727C46.1115 15.3409 46.2536 16.2358 46.5376 16.9574C46.8274 17.6733 47.245 18.2131 47.7905 18.5767C48.3359 18.9347 48.9922 19.1136 49.7592 19.1136C50.1967 19.1136 50.5888 19.0597 50.9354 18.9517C51.282 18.8381 51.5831 18.6761 51.8388 18.4659C52.0945 18.2557 52.3018 18.0028 52.4609 17.7074C52.6257 17.4062 52.7365 17.0682 52.7933 16.6932L57.6001 16.7273C57.5433 17.4659 57.3359 18.2187 56.978 18.9858C56.62 19.7472 56.1115 20.4517 55.4524 21.0994C54.799 21.7415 53.9893 22.2585 53.0234 22.6506C52.0575 23.0426 50.9354 23.2386 49.657 23.2386C48.0547 23.2386 46.6172 22.8949 45.3445 22.2074C44.0774 21.5199 43.0746 20.5085 42.3359 19.1733C41.603 17.8381 41.2365 16.2045 41.2365 14.2727C41.2365 12.3295 41.6115 10.6932 42.3615 9.36364C43.1115 8.02841 44.1229 7.01989 45.3956 6.33807C46.6683 5.65057 48.0888 5.30682 49.657 5.30682C50.7592 5.30682 51.7734 5.45739 52.6996 5.75852C53.6257 6.05966 54.4382 6.5 55.1371 7.07954C55.8359 7.65341 56.3984 8.3608 56.8246 9.2017C57.2507 10.0426 57.5092 11.0057 57.6001 12.0909ZM76.6591 14.2727C76.6591 16.2159 76.2813 17.8551 75.5256 19.1903C74.7699 20.5199 73.75 21.5284 72.4659 22.2159C71.1818 22.8977 69.75 23.2386 68.1705 23.2386C66.5795 23.2386 65.142 22.8949 63.858 22.2074C62.5795 21.5142 61.5625 20.5028 60.8068 19.1733C60.0568 17.8381 59.6818 16.2045 59.6818 14.2727C59.6818 12.3295 60.0568 10.6932 60.8068 9.36364C61.5625 8.02841 62.5795 7.01989 63.858 6.33807C65.142 5.65057 66.5795 5.30682 68.1705 5.30682C69.75 5.30682 71.1818 5.65057 72.4659 6.33807C73.75 7.01989 74.7699 8.02841 75.5256 9.36364C76.2813 10.6932 76.6591 12.3295 76.6591 14.2727ZM71.7841 14.2727C71.7841 13.2273 71.6449 12.3466 71.3665 11.6307C71.0938 10.9091 70.6875 10.3636 70.1477 9.99432C69.6136 9.61932 68.9545 9.43182 68.1705 9.43182C67.3864 9.43182 66.7244 9.61932 66.1847 9.99432C65.6506 10.3636 65.2443 10.9091 64.9659 11.6307C64.6932 12.3466 64.5568 13.2273 64.5568 14.2727C64.5568 15.3182 64.6932 16.2017 64.9659 16.9233C65.2443 17.6392 65.6506 18.1847 66.1847 18.5597C66.7244 18.929 67.3864 19.1136 68.1705 19.1136C68.9545 19.1136 69.6136 18.929 70.1477 18.5597C70.6875 18.1847 71.0938 17.6392 71.3665 16.9233C71.6449 16.2017 71.7841 15.3182 71.7841 14.2727ZM95.7607 14.2727C95.7607 16.2159 95.3828 17.8551 94.6271 19.1903C93.8714 20.5199 92.8516 21.5284 91.5675 22.2159C90.2834 22.8977 88.8516 23.2386 87.272 23.2386C85.6811 23.2386 84.2436 22.8949 82.9595 22.2074C81.6811 21.5142 80.6641 20.5028 79.9084 19.1733C79.1584 17.8381 78.7834 16.2045 78.7834 14.2727C78.7834 12.3295 79.1584 10.6932 79.9084 9.36364C80.6641 8.02841 81.6811 7.01989 82.9595 6.33807C84.2436 5.65057 85.6811 5.30682 87.272 5.30682C88.8516 5.30682 90.2834 5.65057 91.5675 6.33807C92.8516 7.01989 93.8714 8.02841 94.6271 9.36364C95.3828 10.6932 95.7607 12.3295 95.7607 14.2727ZM90.8857 14.2727C90.8857 13.2273 90.7464 12.3466 90.468 11.6307C90.1953 10.9091 89.7891 10.3636 89.2493 9.99432C88.7152 9.61932 88.0561 9.43182 87.272 9.43182C86.4879 9.43182 85.826 9.61932 85.2862 9.99432C84.7521 10.3636 84.3459 10.9091 84.0675 11.6307C83.7947 12.3466 83.6584 13.2273 83.6584 14.2727C83.6584 15.3182 83.7947 16.2017 84.0675 16.9233C84.3459 17.6392 84.7521 18.1847 85.2862 18.5597C85.826 18.929 86.4879 19.1136 87.272 19.1136C88.0561 19.1136 88.7152 18.929 89.2493 18.5597C89.7891 18.1847 90.1953 17.6392 90.468 16.9233C90.7464 16.2017 90.8857 15.3182 90.8857 14.2727ZM97.9531 23V5.54545H102.692V12.6023H102.93L108.18 5.54545H113.703L107.805 13.3182L113.839 23H108.18L104.26 16.4545L102.692 18.5V23H97.9531ZM119.848 5.54545V23H115.109V5.54545H119.848ZM122.094 23V5.54545H134.673V9.36364H126.832V12.3636H134.026V16.1818H126.832V19.1818H134.639V23H122.094ZM146.433 11C146.387 10.4318 146.174 9.98864 145.793 9.67045C145.418 9.35227 144.847 9.19318 144.08 9.19318C143.592 9.19318 143.191 9.25284 142.879 9.37216C142.572 9.4858 142.344 9.64205 142.197 9.84091C142.049 10.0398 141.972 10.267 141.967 10.5227C141.955 10.733 141.992 10.9233 142.077 11.0938C142.168 11.2585 142.31 11.4091 142.504 11.5455C142.697 11.6761 142.944 11.7955 143.245 11.9034C143.546 12.0114 143.904 12.108 144.319 12.1932L145.751 12.5C146.717 12.7045 147.543 12.9744 148.231 13.3097C148.918 13.6449 149.481 14.0398 149.918 14.4943C150.356 14.9432 150.677 15.4489 150.881 16.0114C151.092 16.5739 151.2 17.1875 151.205 17.8523C151.2 19 150.913 19.9716 150.344 20.767C149.776 21.5625 148.964 22.1676 147.907 22.5824C146.856 22.9972 145.592 23.2045 144.114 23.2045C142.597 23.2045 141.273 22.9801 140.143 22.5312C139.018 22.0824 138.143 21.392 137.518 20.4602C136.898 19.5227 136.586 18.3239 136.58 16.8636H141.08C141.109 17.3977 141.242 17.8466 141.481 18.2102C141.719 18.5739 142.055 18.8494 142.487 19.0369C142.924 19.2244 143.444 19.3182 144.046 19.3182C144.552 19.3182 144.975 19.2557 145.316 19.1307C145.657 19.0057 145.915 18.8324 146.092 18.6108C146.268 18.3892 146.359 18.1364 146.364 17.8523C146.359 17.5852 146.271 17.3523 146.1 17.1534C145.935 16.9489 145.663 16.767 145.282 16.608C144.901 16.4432 144.387 16.2898 143.739 16.1477L142.001 15.7727C140.455 15.4375 139.237 14.8778 138.344 14.0938C137.458 13.304 137.018 12.2273 137.023 10.8636C137.018 9.75568 137.313 8.78693 137.91 7.95739C138.512 7.12216 139.344 6.47159 140.407 6.00568C141.475 5.53977 142.7 5.30682 144.08 5.30682C145.489 5.30682 146.708 5.54261 147.737 6.0142C148.765 6.4858 149.558 7.15057 150.114 8.00852C150.677 8.8608 150.961 9.85795 150.967 11H146.433ZM163.482 23.2727C162.232 23.2727 161.156 23.0511 160.252 22.608C159.349 22.1648 158.656 21.571 158.173 20.8267C157.69 20.0824 157.448 19.2614 157.448 18.3636C157.448 17.7102 157.573 17.1335 157.823 16.6335C158.073 16.1278 158.423 15.6648 158.871 15.2443C159.32 14.8239 159.846 14.4091 160.448 14L164.403 11.5455C164.8 11.2955 165.07 11.0369 165.212 10.7699C165.354 10.4972 165.425 10.2557 165.425 10.0455C165.425 9.76705 165.323 9.51989 165.119 9.30398C164.914 9.08807 164.596 8.98295 164.164 8.98864C163.897 8.98864 163.667 9.03977 163.474 9.14204C163.281 9.23864 163.13 9.375 163.022 9.55114C162.92 9.72727 162.869 9.9375 162.869 10.1818C162.869 10.517 162.965 10.8608 163.158 11.2131C163.352 11.5597 163.616 11.9347 163.951 12.3381C164.286 12.7415 164.664 13.1932 165.085 13.6932L173.539 23H168.835L161.744 15.5C161.397 15.1307 161.013 14.679 160.593 14.1449C160.173 13.6051 159.809 12.9972 159.502 12.321C159.201 11.6449 159.05 10.9091 159.05 10.1136C159.05 9.22727 159.263 8.41761 159.69 7.68466C160.116 6.9517 160.712 6.36648 161.479 5.92898C162.246 5.49148 163.141 5.27273 164.164 5.27273C165.141 5.27273 165.982 5.47443 166.687 5.87784C167.397 6.28125 167.942 6.81818 168.323 7.48864C168.71 8.15909 168.903 8.89773 168.903 9.70454C168.903 10.517 168.701 11.2756 168.298 11.9801C167.9 12.6847 167.329 13.3011 166.585 13.8295L162.971 16.3864C162.692 16.5795 162.451 16.8011 162.246 17.0511C162.048 17.3011 161.948 17.625 161.948 18.0227C161.948 18.3523 162.025 18.6335 162.178 18.8665C162.332 19.0994 162.548 19.2784 162.826 19.4034C163.11 19.5284 163.442 19.5909 163.823 19.5909C164.403 19.5909 164.982 19.4517 165.562 19.1733C166.147 18.8892 166.681 18.4943 167.164 17.9886C167.647 17.4773 168.033 16.875 168.323 16.1818C168.619 15.483 168.766 14.7216 168.766 13.8977H172.482C172.482 14.9091 172.377 15.8835 172.167 16.821C171.957 17.7585 171.619 18.6165 171.153 19.3949C170.687 20.1733 170.073 20.8295 169.312 21.3636C169.073 21.483 168.84 21.5966 168.613 21.7045C168.386 21.8125 168.153 21.9261 167.914 22.0455C167.215 22.4943 166.485 22.8125 165.724 23C164.962 23.1818 164.215 23.2727 163.482 23.2727ZM190.64 11.3068C190.566 11.0057 190.45 10.7415 190.29 10.5142C190.131 10.2812 189.933 10.0852 189.694 9.92614C189.461 9.76136 189.188 9.6392 188.876 9.55966C188.569 9.47443 188.231 9.43182 187.862 9.43182C187.066 9.43182 186.387 9.62216 185.825 10.0028C185.268 10.3835 184.842 10.9318 184.546 11.6477C184.256 12.3636 184.112 13.2273 184.112 14.2386C184.112 15.2614 184.251 16.1364 184.529 16.8636C184.808 17.5909 185.222 18.1477 185.773 18.5341C186.325 18.9205 187.009 19.1136 187.827 19.1136C188.549 19.1136 189.148 19.0085 189.626 18.7983C190.109 18.5881 190.469 18.2898 190.708 17.9034C190.947 17.517 191.066 17.0625 191.066 16.5398L191.884 16.625H187.896V13.25H195.634V15.6705C195.634 17.2614 195.296 18.6222 194.62 19.7528C193.95 20.8778 193.023 21.7415 191.842 22.3438C190.665 22.9403 189.316 23.2386 187.793 23.2386C186.094 23.2386 184.603 22.8778 183.319 22.1562C182.035 21.4347 181.032 20.4062 180.31 19.071C179.594 17.7358 179.237 16.1477 179.237 14.3068C179.237 12.8636 179.455 11.5852 179.893 10.4716C180.336 9.35795 180.95 8.41761 181.734 7.65057C182.518 6.87784 183.424 6.29545 184.452 5.90341C185.481 5.50568 186.583 5.30682 187.759 5.30682C188.793 5.30682 189.754 5.45455 190.64 5.75C191.532 6.03977 192.319 6.45454 193.001 6.99432C193.688 7.52841 194.242 8.16193 194.663 8.89489C195.083 9.62784 195.339 10.4318 195.43 11.3068H190.64ZM214.753 14.2727C214.753 16.2159 214.375 17.8551 213.619 19.1903C212.864 20.5199 211.844 21.5284 210.56 22.2159C209.276 22.8977 207.844 23.2386 206.264 23.2386C204.673 23.2386 203.236 22.8949 201.952 22.2074C200.673 21.5142 199.656 20.5028 198.901 19.1733C198.151 17.8381 197.776 16.2045 197.776 14.2727C197.776 12.3295 198.151 10.6932 198.901 9.36364C199.656 8.02841 200.673 7.01989 201.952 6.33807C203.236 5.65057 204.673 5.30682 206.264 5.30682C207.844 5.30682 209.276 5.65057 210.56 6.33807C211.844 7.01989 212.864 8.02841 213.619 9.36364C214.375 10.6932 214.753 12.3295 214.753 14.2727ZM209.878 14.2727C209.878 13.2273 209.739 12.3466 209.46 11.6307C209.188 10.9091 208.781 10.3636 208.241 9.99432C207.707 9.61932 207.048 9.43182 206.264 9.43182C205.48 9.43182 204.818 9.61932 204.278 9.99432C203.744 10.3636 203.338 10.9091 203.06 11.6307C202.787 12.3466 202.651 13.2273 202.651 14.2727C202.651 15.3182 202.787 16.2017 203.06 16.9233C203.338 17.6392 203.744 18.1847 204.278 18.5597C204.818 18.929 205.48 19.1136 206.264 19.1136C207.048 19.1136 207.707 18.929 208.241 18.5597C208.781 18.1847 209.188 17.6392 209.46 16.9233C209.739 16.2017 209.878 15.3182 209.878 14.2727Z" fill="#472E27"/>
<defs>
<clipPath id="clip0_28_3">
<rect width="40" height="40" fill="white"/>
</clipPath>
</defs>
</svg>
